<svg width="83" height="58" viewBox="0 0 83 58" fill="none" xmlns="http://www.w3.org/2000/svg">
<path d="M20.1336 58C16.7095 58 13.6279 57.3937 10.8886 56.1812C8.28626 54.8339 6.2317 53.0151 4.7251 50.7247C3.35546 48.7038 2.19127 46.144 1.23252 43.0453C0.410737 39.8119 0 36.3763 0 32.7387C0 26.0023 1.71201 19.7375 5.13611 13.9443C8.69718 8.01627 14.1758 3.36818 21.5718 0L23.4207 3.63763C19.7227 5.25436 16.4355 7.67945 13.5593 10.9129C10.6831 14.0116 8.83413 17.3124 8.01234 20.8153C7.05359 24.1835 6.91668 27.417 7.6015 30.5157C10.8886 26.878 15.4083 25.0592 21.1608 25.0592C26.2285 25.0592 30.3374 26.4739 33.4876 29.3031C36.6377 32.1324 38.2128 36.1742 38.2128 41.4286C38.2128 46.4135 36.5008 50.4553 33.0767 53.554C29.7896 56.518 25.4752 58 20.1336 58ZM64.9208 58C61.4967 58 58.415 57.3937 55.6757 56.1812C53.0734 54.8339 51.019 53.0151 49.5124 50.7247C48.1428 48.7038 46.9786 46.144 46.0199 43.0453C45.1981 39.8119 44.7872 36.3763 44.7872 32.7387C44.7872 26.0023 46.4992 19.7375 49.9233 13.9443C53.4843 8.01627 58.9629 3.36818 66.359 0L68.208 3.63763C64.51 5.25436 61.2229 7.67945 58.3466 10.9129C55.4704 14.0116 53.6213 17.3124 52.7995 20.8153C51.8408 24.1835 51.7038 27.417 52.3887 30.5157C55.6758 26.878 60.1956 25.0592 65.9481 25.0592C71.0158 25.0592 75.1246 26.4739 78.2747 29.3031C81.4249 32.1324 83 36.1742 83 41.4286C83 46.4135 81.288 50.4553 77.8639 53.554C74.5768 56.518 70.2624 58 64.9208 58Z" fill="#D3B47F"/>
</svg>
